<svg id="Capa_1" enable-background="new 0 0 511.944 511.944" height="512" viewBox="0 0 511.944 511.944" width="512" xmlns="http://www.w3.org/2000/svg" xmlns:xlink="http://www.w3.org/1999/xlink"><linearGradient id="SVGID_1_" gradientUnits="userSpaceOnUse" x1="255.972" x2="255.972" y1="511.944" y2="0"><stop offset="0" stop-color="#5558ff"/><stop offset="1" stop-color="#00c0ff"/></linearGradient><g><g><path d="m435.941 0h-120c-41.355 0-75 33.645-75 75v61c0 36.219 25.809 66.524 60 73.493v31.507c0 5.682 3.21 10.875 8.292 13.417 5.07 2.535 11.152 2 15.708-1.417l56-42h55c41.458 0 76-33.534 76-75v-61c0-41.458-34.534-75-76-75zm46 136c0 24.393-21.065 45-46 45h-60c-3.246 0-6.403 1.053-9 3l-36 27v-15c0-8.284-6.716-15-15-15-24.813 0-45-20.187-45-45v-61c0-24.813 20.187-45 45-45h120c24.935 0 46 20.607 46 45zm-15.35 266.816-106.066-76.066c-4.941-3.544-11.534-3.754-16.69-.531l-59.759 37.342c-3.214.616-17.185-1.999-44.198-21.554-22.712-16.44-47.051-39.459-65.106-61.574-26.753-32.769-28.747-49.291-27.279-52.995l37.52-60.042c3.223-5.157 3.013-11.749-.531-16.691l-76.068-106.065c-2.567-3.579-6.577-5.849-10.966-6.208-4.385-.359-8.715 1.229-11.83 4.343l-54.729 54.725c-31.003 31-39.633 78.204-21.475 117.463 24.279 52.493 55.799 101 93.685 144.174 54.159 61.718 119.625 110.187 194.582 144.061 38.353 17.333 84.789 8.401 115.519-22.33l55.256-55.255c6.533-6.534 5.666-17.396-1.865-22.797zm-74.605 56.839c-21.934 21.933-54.867 28.445-81.952 16.205-161.589-73.026-240.648-202.695-273.392-273.49-12.9-27.892-6.688-61.51 15.459-83.655l42.233-42.23 59.909 83.538c-34.657 55.485-32.659 52.205-33.115 53.062-7.511 14.108-4.309 33.221 9.519 56.807 22.57 38.499 70.36 84.458 108.334 107.576 26.026 15.843 45.378 19.976 59.166 12.635.857-.456-2.381 1.516 53.062-33.115l83.537 59.909zm-76.045-368.655c-8.284 0-15 6.716-15 15s6.716 15 15 15 15-6.716 15-15-6.716-15-15-15zm60 0c-8.284 0-15 6.716-15 15s6.716 15 15 15 15-6.716 15-15-6.716-15-15-15zm60 0c-8.284 0-15 6.716-15 15s6.716 15 15 15 15-6.716 15-15-6.716-15-15-15z" fill="url(#SVGID_1_)"/></g></g></svg>